<svg version="1.1" id="Uploaded to svgrepo.com" xmlns="http://www.w3.org/2000/svg" xmlns:xlink="http://www.w3.org/1999/xlink" x="0px" y="0px"
	 width="32px" height="32px" viewBox="0 0 32 32" style="enable-background:new 0 0 32 32;" xml:space="preserve">
<style type="text/css">
	.isometric_tien{fill:#7BD6C4;}
	.isometric_twaalf{fill:#569080;}
	.isometric_dertien{fill:#225B49;}
	.st0{fill:#FF7344;}
	.st1{fill:#F05A28;}
	.st2{fill:#72C0AB;}
	.st3{fill:#F29227;}
	.st4{fill:#225B49;}
	.st5{fill:#BE1E2D;}
	.st6{fill:#F28103;}
	.st7{fill:#F8F7C5;}
	.st8{fill:#AD9A74;}
	.st9{fill:#F2D76C;}
	.st10{fill:#F5DF89;}
	.st11{fill:#7BD6C4;}
	.st12{fill:#80CCBE;}
</style>
<g>
	<path class="isometric_twaalf" d="M18.5,4.266C17.7,4.059,16.865,3.938,16,3.938c-5.523,0-10,4.477-10,10
		c0,6.423,4.901,9.432,4.904,9.545c0.001,0.023,0,1.792,0,1.792c0.524,1.391,1.696,2.296,3.123,2.633
		c1.321,0.312,2.741,0.205,4.048-0.125c1.25-0.315,2.8-0.891,2.996-2.583c0,0,0.019-2.154-0.02-2.399
		c-0.012-0.073,0.054-0.276,0.112-0.31C24.058,20.739,26,17.569,26,13.938C26,9.28,22.811,5.378,18.5,4.266z"/>
	<path class="isometric_tien" d="M21.162,22.491c1.714-6.406,0.614-13.016-2.662-18.225c-0.871-0.225-1.743-0.329-2.602-0.327
		C10.423,3.994,6,8.449,6,13.938c0,6.423,4.901,9.432,4.904,9.545c0.001,0.023,0,1.792,0,1.792c0.291,0.773,0.738,1.354,1.283,1.781
		v-1.913c0.306,0.2,0.604,0.371,1.25,0.589v2.003c0.4,0.143,0.821,0.237,1.25,0.292v-1.994c0.411,0.063,0.828,0.107,1.25,0.11v1.941
		c0.427-0.012,0.847-0.055,1.25-0.119V26.05c0.433-0.06,0.851-0.153,1.25-0.28v1.914c0.412-0.121,1.131-0.425,1.158-0.441
		c0.978-0.564,1.469-1.302,1.477-2.043c0.001-0.091-0.003-2.286-0.02-2.399C21.039,22.728,21.105,22.525,21.162,22.491
		L21.162,22.491L21.162,22.491z"/>
	<path class="isometric_twaalf" d="M17.187,29c0.01-0.001,0.02-0.002,0.03-0.004C17.217,28.996,17.203,28.998,17.187,29z"/>
	<path class="isometric_twaalf" d="M11.716,21.684c0.421,0.243,1.089,0.629,1.536,0.887c0.052,0.399-0.124,0.568-0.478,0.364
		c-0.847-0.489-1.387-0.8-1.614-0.932c-0.444-0.256-0.625-0.78-0.403-1.165c0.222-0.384,0.585-1.013,0.807-1.397
		c0.119-0.206,0.276-0.217,0.431-0.102c-0.218,0.377-0.497,0.86-0.682,1.181C11.091,20.904,11.272,21.428,11.716,21.684z
		 M8.355,14.365c0.003-0.418,0.13-0.769,0.459-0.919c-0.66-0.232-1.158,0.148-1.158,0.949c0,1.328,1.411,3.06,2.398,2.608
		C9.056,16.652,8.347,15.317,8.355,14.365z M13.762,16.504c0.003-0.418,0.13-0.769,0.459-0.919c-0.66-0.232-1.158,0.148-1.158,0.949
		c0,1.328,1.411,3.06,2.398,2.608C14.463,18.791,13.753,17.456,13.762,16.504z"/>
	<path class="isometric_dertien" d="M11.994,19.339c0.374,0.278,1.2,2.793,1.258,3.232c-0.447-0.258-1.115-0.644-1.536-0.887
		c-0.444-0.256-0.625-0.78-0.403-1.165C11.497,20.199,11.776,19.716,11.994,19.339z M8.814,13.446
		c-0.327,0.15-0.455,0.501-0.459,0.919c-0.007,0.953,0.71,2.29,1.699,2.638C11.132,16.51,10.235,13.946,8.814,13.446z
		 M14.221,15.585c-0.327,0.15-0.455,0.501-0.459,0.919c-0.007,0.953,0.71,2.29,1.699,2.638
		C16.538,18.649,15.642,16.085,14.221,15.585z"/>
</g>
</svg>